<svg xmlns="http://www.w3.org/2000/svg" viewBox="0 0 500 500"><g id="freepik--background-complete--inject-3"><rect x="416.78" y="398.49" width="33.12" height="0.25" style="fill:#ebebeb"></rect><rect x="322.53" y="401.21" width="8.69" height="0.25" style="fill:#ebebeb"></rect><rect x="396.59" y="389.21" width="19.19" height="0.25" style="fill:#ebebeb"></rect><rect x="52.46" y="390.89" width="43.19" height="0.25" style="fill:#ebebeb"></rect><rect x="104.56" y="390.89" width="6.33" height="0.25" style="fill:#ebebeb"></rect><rect x="131.47" y="395.11" width="93.68" height="0.25" style="fill:#ebebeb"></rect><path d="M238.4,337.8H45.3a5.71,5.71,0,0,1-5.71-5.71V60.66A5.71,5.71,0,0,1,45.3,55H238.4a5.71,5.71,0,0,1,5.71,5.71V332.09A5.71,5.71,0,0,1,238.4,337.8ZM45.3,55.2a5.47,5.47,0,0,0-5.46,5.46V332.09a5.47,5.47,0,0,0,5.46,5.46H238.4a5.47,5.47,0,0,0,5.46-5.46V60.66a5.47,5.47,0,0,0-5.46-5.46Z" style="fill:#ebebeb"></path><path d="M454.7,337.8H261.6a5.71,5.71,0,0,1-5.71-5.71V60.66A5.71,5.71,0,0,1,261.6,55H454.7a5.71,5.71,0,0,1,5.71,5.71V332.09A5.71,5.71,0,0,1,454.7,337.8ZM261.6,55.2a5.47,5.47,0,0,0-5.46,5.46V332.09a5.47,5.47,0,0,0,5.46,5.46H454.7a5.47,5.47,0,0,0,5.46-5.46V60.66a5.47,5.47,0,0,0-5.46-5.46Z" style="fill:#ebebeb"></path><rect y="382.4" width="500" height="0.25" style="fill:#ebebeb"></rect><rect x="293.75" y="94.82" width="128.9" height="285.02" style="fill:#e0e0e0"></rect><path d="M422.65,92.32v290H446.4v-290Z" style="fill:#e6e6e6"></path><path d="M271.15,92.32v290h23.74v-290Z" style="fill:#e6e6e6"></path><path d="M267.11,92.32v290H425.5v-290Zm152.69,5v52h-147v-52Zm-147,166v-52h147v52Zm147,5v52h-147v-52Zm-147-62v-52h147v52Zm0,171v-52h147v52Z" style="fill:#f5f5f5"></path><rect x="368.45" y="109.45" width="5.48" height="40.35" transform="translate(742.38 259.25) rotate(180)" style="fill:#e6e6e6"></rect><rect x="373.93" y="109.45" width="5.48" height="40.35" transform="translate(753.34 259.25) rotate(180)" style="fill:#e0e0e0"></rect><rect x="357.49" y="112.29" width="10.96" height="37.52" transform="translate(725.94 262.09) rotate(180)" style="fill:#e6e6e6"></rect><rect x="344.93" y="109.45" width="7.08" height="40.35" transform="translate(696.95 259.25) rotate(180)" style="fill:#f0f0f0"></rect><rect x="352.01" y="109.45" width="5.48" height="40.35" transform="translate(709.51 259.25) rotate(180)" style="fill:#ebebeb"></rect><rect x="303.38" y="109.45" width="7.08" height="40.35" transform="translate(613.84 259.25) rotate(180)" style="fill:#e6e6e6"></rect><rect x="310.46" y="109.45" width="5.48" height="40.35" transform="translate(626.4 259.25) rotate(180)" style="fill:#ebebeb"></rect><rect x="326.9" y="109.45" width="7.08" height="40.35" transform="translate(660.87 259.25) rotate(180)" style="fill:#e6e6e6"></rect><rect x="333.98" y="109.45" width="5.48" height="40.35" transform="translate(673.43 259.25) rotate(180)" style="fill:#e0e0e0"></rect><rect x="292.42" y="110.41" width="10.96" height="39.4" transform="translate(595.8 260.21) rotate(180)" style="fill:#ebebeb"></rect><rect x="286.94" y="110.41" width="5.48" height="39.4" transform="translate(579.37 260.21) rotate(180)" style="fill:#e0e0e0"></rect><rect x="319.59" y="110.41" width="7.3" height="39.4" transform="translate(646.49 260.21) rotate(180)" style="fill:#e0e0e0"></rect><rect x="315.94" y="110.41" width="3.65" height="39.4" transform="translate(635.53 260.21) rotate(180)" style="fill:#f0f0f0"></rect><rect x="333.98" y="112.29" width="10.96" height="37.52" transform="translate(678.91 262.09) rotate(180)" style="fill:#f5f5f5"></rect><rect x="395.84" y="109.45" width="7.08" height="40.35" transform="translate(798.77 259.25) rotate(180)" style="fill:#ebebeb"></rect><rect x="402.92" y="109.45" width="5.48" height="40.35" transform="translate(811.33 259.25) rotate(180)" style="fill:#e6e6e6"></rect><rect x="384.89" y="110.41" width="10.96" height="39.4" transform="translate(780.73 260.21) rotate(180)" style="fill:#e0e0e0"></rect><rect x="379.41" y="110.41" width="5.48" height="39.4" transform="translate(764.29 260.21) rotate(180)" style="fill:#ebebeb"></rect><rect x="412.05" y="110.41" width="7.3" height="39.4" transform="translate(831.41 260.21) rotate(180)" style="fill:#ebebeb"></rect><rect x="408.4" y="110.41" width="3.65" height="39.4" transform="translate(820.46 260.21) rotate(180)" style="fill:#fafafa"></rect><rect x="332.37" y="165.95" width="5.48" height="40.35" style="fill:#e6e6e6"></rect><rect x="326.9" y="165.95" width="5.48" height="40.35" style="fill:#e0e0e0"></rect><rect x="337.85" y="168.79" width="10.96" height="37.52" style="fill:#e6e6e6"></rect><rect x="354.29" y="165.95" width="7.08" height="40.35" style="fill:#f0f0f0"></rect><rect x="348.81" y="165.95" width="5.48" height="40.35" style="fill:#ebebeb"></rect><rect x="395.84" y="165.95" width="7.08" height="40.35" style="fill:#e6e6e6"></rect><rect x="390.36" y="165.95" width="5.48" height="40.35" style="fill:#ebebeb"></rect><rect x="372.33" y="165.95" width="7.08" height="40.35" style="fill:#e6e6e6"></rect><rect x="366.85" y="165.95" width="5.48" height="40.35" style="fill:#e0e0e0"></rect><rect x="402.92" y="166.91" width="10.96" height="39.4" style="fill:#ebebeb"></rect><rect x="413.88" y="166.91" width="5.48" height="39.4" style="fill:#e0e0e0"></rect><rect x="379.41" y="166.91" width="7.3" height="39.4" style="fill:#e0e0e0"></rect><rect x="386.71" y="166.91" width="3.65" height="39.4" style="fill:#f0f0f0"></rect><rect x="361.37" y="168.79" width="10.96" height="37.52" style="fill:#f5f5f5"></rect><rect x="303.38" y="165.95" width="7.08" height="40.35" style="fill:#ebebeb"></rect><rect x="297.9" y="165.95" width="5.48" height="40.35" style="fill:#e6e6e6"></rect><rect x="310.46" y="166.91" width="10.96" height="39.4" style="fill:#e0e0e0"></rect><rect x="321.42" y="166.91" width="5.48" height="39.4" style="fill:#ebebeb"></rect><rect x="286.94" y="166.91" width="7.3" height="39.4" style="fill:#ebebeb"></rect><rect x="294.25" y="166.91" width="3.65" height="39.4" style="fill:#fafafa"></rect><rect x="332.37" y="223.46" width="5.48" height="40.35" style="fill:#e6e6e6"></rect><rect x="326.9" y="223.46" width="5.48" height="40.35" style="fill:#e0e0e0"></rect><rect x="337.85" y="226.29" width="10.96" height="37.52" style="fill:#e6e6e6"></rect><rect x="354.29" y="223.46" width="7.08" height="40.35" style="fill:#f0f0f0"></rect><rect x="348.81" y="223.46" width="5.48" height="40.35" style="fill:#ebebeb"></rect><rect x="395.84" y="223.46" width="7.08" height="40.35" style="fill:#e6e6e6"></rect><rect x="390.36" y="223.46" width="5.48" height="40.35" style="fill:#ebebeb"></rect><rect x="372.33" y="223.46" width="7.08" height="40.35" style="fill:#e6e6e6"></rect><rect x="366.85" y="223.46" width="5.48" height="40.35" style="fill:#e0e0e0"></rect><rect x="402.92" y="224.41" width="10.96" height="39.4" style="fill:#ebebeb"></rect><rect x="413.88" y="224.41" width="5.48" height="39.4" style="fill:#e0e0e0"></rect><rect x="379.41" y="224.41" width="7.3" height="39.4" style="fill:#e0e0e0"></rect><rect x="386.71" y="224.41" width="3.65" height="39.4" style="fill:#f0f0f0"></rect><rect x="361.37" y="226.29" width="10.96" height="37.52" style="fill:#f5f5f5"></rect><rect x="303.38" y="223.46" width="7.08" height="40.35" style="fill:#ebebeb"></rect><rect x="297.9" y="223.46" width="5.48" height="40.35" style="fill:#e6e6e6"></rect><rect x="310.46" y="224.41" width="10.96" height="39.4" style="fill:#e0e0e0"></rect><rect x="321.42" y="224.41" width="5.48" height="39.4" style="fill:#ebebeb"></rect><rect x="286.94" y="224.41" width="7.3" height="39.4" style="fill:#ebebeb"></rect><rect x="294.25" y="224.41" width="3.65" height="39.4" style="fill:#fafafa"></rect><rect x="368.45" y="280.96" width="5.48" height="40.35" transform="translate(742.38 602.28) rotate(180)" style="fill:#e6e6e6"></rect><rect x="373.93" y="280.96" width="5.48" height="40.35" transform="translate(753.34 602.28) rotate(180)" style="fill:#e0e0e0"></rect><rect x="357.49" y="280.96" width="10.96" height="37.52" transform="translate(725.94 599.44) rotate(180)" style="fill:#e6e6e6"></rect><rect x="344.93" y="280.96" width="7.08" height="40.35" transform="translate(696.95 602.28) rotate(180)" style="fill:#f0f0f0"></rect><rect x="352.01" y="280.96" width="5.48" height="40.35" transform="translate(709.51 602.28) rotate(180)" style="fill:#ebebeb"></rect><rect x="303.38" y="280.96" width="7.08" height="40.35" transform="translate(613.84 602.28) rotate(180)" style="fill:#e6e6e6"></rect><rect x="310.46" y="280.96" width="5.48" height="40.35" transform="translate(626.4 602.28) rotate(180)" style="fill:#ebebeb"></rect><rect x="326.9" y="280.96" width="7.08" height="40.35" transform="translate(660.87 602.28) rotate(180)" style="fill:#e6e6e6"></rect><rect x="333.98" y="280.96" width="5.48" height="40.35" transform="translate(673.43 602.28) rotate(180)" style="fill:#e0e0e0"></rect><rect x="292.42" y="280.96" width="10.96" height="39.4" transform="translate(595.8 601.32) rotate(180)" style="fill:#ebebeb"></rect><rect x="286.94" y="280.96" width="5.48" height="39.4" transform="translate(579.37 601.32) rotate(180)" style="fill:#e0e0e0"></rect><rect x="319.59" y="280.96" width="7.3" height="39.4" transform="translate(646.49 601.32) rotate(180)" style="fill:#e0e0e0"></rect><rect x="315.94" y="280.96" width="3.65" height="39.4" transform="translate(635.53 601.32) rotate(180)" style="fill:#f0f0f0"></rect><rect x="333.98" y="280.96" width="10.96" height="37.52" transform="translate(678.91 599.44) rotate(180)" style="fill:#f5f5f5"></rect><rect x="395.84" y="280.96" width="7.08" height="40.35" transform="translate(798.77 602.28) rotate(180)" style="fill:#ebebeb"></rect><rect x="402.92" y="280.96" width="5.48" height="40.35" transform="translate(811.33 602.28) rotate(180)" style="fill:#e6e6e6"></rect><rect x="384.89" y="280.96" width="10.96" height="39.4" transform="translate(780.73 601.32) rotate(180)" style="fill:#e0e0e0"></rect><rect x="379.41" y="280.96" width="5.48" height="39.4" transform="translate(764.29 601.32) rotate(180)" style="fill:#ebebeb"></rect><rect x="412.05" y="280.96" width="7.3" height="39.4" transform="translate(831.41 601.32) rotate(180)" style="fill:#ebebeb"></rect><rect x="408.4" y="280.96" width="3.65" height="39.4" transform="translate(820.46 601.32) rotate(180)" style="fill:#fafafa"></rect><rect x="332.37" y="338.47" width="5.48" height="40.35" style="fill:#e6e6e6"></rect><rect x="326.9" y="338.47" width="5.48" height="40.35" style="fill:#e0e0e0"></rect><rect x="337.85" y="338.47" width="10.96" height="37.52" style="fill:#e6e6e6"></rect><rect x="354.29" y="338.47" width="7.08" height="40.35" style="fill:#f0f0f0"></rect><rect x="348.81" y="338.47" width="5.48" height="40.35" style="fill:#ebebeb"></rect><rect x="395.84" y="338.47" width="7.08" height="40.35" style="fill:#e6e6e6"></rect><rect x="390.36" y="338.47" width="5.48" height="40.35" style="fill:#ebebeb"></rect><rect x="372.33" y="338.47" width="7.08" height="40.35" style="fill:#e6e6e6"></rect><rect x="366.85" y="338.47" width="5.48" height="40.35" style="fill:#e0e0e0"></rect><rect x="402.92" y="338.47" width="10.96" height="39.4" style="fill:#ebebeb"></rect><rect x="413.88" y="338.47" width="5.48" height="39.4" style="fill:#e0e0e0"></rect><rect x="379.41" y="338.47" width="7.3" height="39.4" style="fill:#e0e0e0"></rect><rect x="386.71" y="338.47" width="3.65" height="39.4" style="fill:#f0f0f0"></rect><rect x="361.37" y="338.47" width="10.96" height="37.52" style="fill:#f5f5f5"></rect><rect x="303.38" y="338.47" width="7.08" height="40.35" style="fill:#ebebeb"></rect><rect x="297.9" y="338.47" width="5.48" height="40.35" style="fill:#e6e6e6"></rect><rect x="310.46" y="338.47" width="10.96" height="39.4" style="fill:#e0e0e0"></rect><rect x="321.42" y="338.47" width="5.48" height="39.4" style="fill:#ebebeb"></rect><rect x="286.94" y="338.47" width="7.3" height="39.4" style="fill:#ebebeb"></rect><rect x="294.25" y="338.47" width="3.65" height="39.4" style="fill:#fafafa"></rect><path d="M85.42,114.61s4.75,20.64,2.9,40.85a255.18,255.18,0,0,1-5.19,31.48s21.58-2.49,47-3.35a293.81,293.81,0,0,1,62.25,4.62l17.31,1.73s-10.68-46.2-1.85-74.3Z" style="fill:#fafafa"></path><rect x="97.27" y="126.77" width="36.12" height="0.78" style="fill:#e0e0e0"></rect><rect x="114.94" y="127.52" width="0.78" height="52.33" style="fill:#e0e0e0"></rect><rect x="131.53" y="127.52" width="0.78" height="52.33" style="fill:#e0e0e0"></rect><rect x="100.2" y="127.52" width="0.78" height="52.33" style="fill:#e0e0e0"></rect><rect x="97.62" y="127.52" width="0.78" height="52.33" style="fill:#e0e0e0"></rect><rect x="98.01" y="130.28" width="33.54" height="0.78" style="fill:#e0e0e0"></rect><rect x="130.42" y="126.77" width="36.11" height="0.78" style="fill:#e0e0e0"></rect><rect x="148.09" y="127.52" width="0.78" height="52.33" style="fill:#e0e0e0"></rect><rect x="131.51" y="127.52" width="0.78" height="52.33" style="fill:#e0e0e0"></rect><rect x="162.83" y="127.52" width="0.78" height="52.33" style="fill:#e0e0e0"></rect><rect x="132.26" y="130.28" width="33.54" height="0.78" style="fill:#e0e0e0"></rect><rect x="161.75" y="126.77" width="33.19" height="0.78" style="fill:#e0e0e0"></rect><rect x="179.42" y="127.52" width="0.78" height="52.33" style="fill:#e0e0e0"></rect><rect x="162.84" y="127.52" width="0.78" height="52.33" style="fill:#e0e0e0"></rect><rect x="194.16" y="127.52" width="0.78" height="52.33" style="fill:#e0e0e0"></rect><rect x="163.59" y="130.28" width="30.96" height="0.78" style="fill:#e0e0e0"></rect><polygon points="212.38 122.32 78.79 121.89 78.79 110.74 211.87 108.62 212.38 122.32" style="fill:#ebebeb"></polygon><path d="M108.25,110.53l-.72-.65L145,93.42a3.35,3.35,0,0,1,4.94,0l37.59,14.92-.7.66L149.2,94a2.44,2.44,0,0,0-1.77-.76,2.41,2.41,0,0,0-1.75.79Z" style="fill:#f5f5f5"></path><path d="M148.69,94a1.18,1.18,0,1,1-1.17-1.17A1.17,1.17,0,0,1,148.69,94Z" style="fill:#e0e0e0"></path></g><g id="freepik--Shadow--inject-3"><ellipse id="freepik--path--inject-3" cx="250" cy="415.69" rx="193.89" ry="11.32" style="fill:#f5f5f5"></ellipse></g><g id="freepik--Plant--inject-3"><path d="M393.61,393.58a.34.34,0,0,1-.31-.34c.39-15.14,1.17-40,1.21-40.1a.33.33,0,1,1,.63.18s-.8,24.95-1.18,39.94a.32.32,0,0,1-.33.32Z" style="fill:#263238"></path><path d="M391.58,343c.12,1.17,1.52,5.21,2.69,5.08s1.66-4.37,1.53-5.54a2.12,2.12,0,1,0-4.22.46Z" style="fill:#407BFF"></path><path d="M397.24,355.78c-.13-1.17-1.53-5.21-2.69-5.08s-1.66,4.37-1.54,5.54a2.13,2.13,0,0,0,4.23-.46Z" style="fill:#407BFF"></path><path d="M388,352.23c1.17-.12,5.21-1.52,5.08-2.68s-4.37-1.66-5.54-1.54a2.12,2.12,0,0,0,.46,4.22Z" style="fill:#407BFF"></path><path d="M400.78,346.58c-1.16.12-5.21,1.52-5.08,2.68s4.37,1.66,5.54,1.54a2.12,2.12,0,0,0-.46-4.22Z" style="fill:#407BFF"></path><path d="M387.9,346.9c.91.73,4.76,2.6,5.49,1.69s-1.92-4.27-2.83-5a2.12,2.12,0,1,0-2.66,3.31Z" style="fill:#407BFF"></path><path d="M400.91,351.91c-.91-.73-4.75-2.6-5.49-1.69s1.92,4.27,2.83,5a2.12,2.12,0,1,0,2.66-3.31Z" style="fill:#407BFF"></path><path d="M391.9,355.91c.73-.91,2.61-4.76,1.69-5.49s-4.27,1.92-5,2.83a2.12,2.12,0,1,0,3.31,2.66Z" style="fill:#407BFF"></path><path d="M396.91,342.9c-.73.91-2.6,4.76-1.69,5.49s4.27-1.92,5-2.83a2.12,2.12,0,1,0-3.31-2.66Z" style="fill:#407BFF"></path><path d="M391.91,349.68a2.52,2.52,0,1,0,2.22-2.77A2.52,2.52,0,0,0,391.91,349.68Z" style="fill:#fff;opacity:0.9"></path><path d="M392.15,382.49c-2.9.06-7.86-2.62-9.82-5.24s3.58-1,3-3.1-7.42-.53-8.69-3.52,3.67-2.31,3.47-3.84-5.32-1.2-7-4.38,2.85-1.41,2.14-2.72-6.37-6.85-4-8,7.67,4.6,9.44,5.24,2.18-3.35,4.49-1.45.61,10.26,3.33,11.35c2,.81,1.15-3,3.48-2.05C396.1,366.44,393.33,382.46,392.15,382.49Z" style="fill:#407BFF"></path><g style="opacity:0.2"><path d="M392.15,382.49c-2.9.06-7.86-2.62-9.82-5.24s3.58-1,3-3.1-7.42-.53-8.69-3.52,3.67-2.31,3.47-3.84-5.32-1.2-7-4.38,2.85-1.41,2.14-2.72-6.37-6.85-4-8,7.67,4.6,9.44,5.24,2.18-3.35,4.49-1.45.61,10.26,3.33,11.35c2,.81,1.15-3,3.48-2.05C396.1,366.44,393.33,382.46,392.15,382.49Z" style="fill:#fff"></path></g><path d="M396.32,378.8c.05.09-.38.5,1.05.56,3.53.14,9.77-.1,12.11-3.3,3.35-4.58-4.37-4.16-3.62-6.69s9-.46,10.66-4.07-4.41-2.9-4.13-4.76,6.6.55,8.69-3.27-3.44-1.78-2.55-3.37,7.91-8.18,5.07-9.65-9.43,5.42-11.61,6.16-2.67-6-5.53-3.76-1,12.45-4.31,13.72c-2.49.94-1.13-2.71-4.2-2.57C393.79,358,392.43,372.29,396.32,378.8Z" style="fill:#407BFF"></path><g style="opacity:0.30000000000000004"><path d="M396.32,378.8c.05.09-.38.5,1.05.56,3.53.14,9.77-.1,12.11-3.3,3.35-4.58-4.37-4.16-3.62-6.69s9-.46,10.66-4.07-4.41-2.9-4.13-4.76,6.6.55,8.69-3.27-3.44-1.78-2.55-3.37,7.91-8.18,5.07-9.65-9.43,5.42-11.61,6.16-2.67-6-5.53-3.76-1,12.45-4.31,13.72c-2.49.94-1.13-2.71-4.2-2.57C393.79,358,392.43,372.29,396.32,378.8Z" style="fill:#fff"></path></g><path d="M393.68,391.29h0a.24.24,0,0,1-.2-.26c2.9-23.7,16.55-33.33,16.69-33.42a.23.23,0,0,1,.32.05.24.24,0,0,1-.06.32c-.14.1-13.62,9.63-16.49,33.11A.23.23,0,0,1,393.68,391.29Z" style="fill:#263238"></path><path d="M407,360.9a.25.25,0,0,1-.21-.16.23.23,0,0,1,.15-.29,11.25,11.25,0,0,1,5.45,0,.22.22,0,0,1,.17.27.23.23,0,0,1-.27.18,11,11,0,0,0-5.21-.05Z" style="fill:#263238"></path><path d="M404.52,363.78a.24.24,0,0,1-.22-.23,23.3,23.3,0,0,1,4.12-12.82.22.22,0,0,1,.32-.05.23.23,0,0,1,0,.32,22.91,22.91,0,0,0-4,12.55.23.23,0,0,1-.23.23Z" style="fill:#263238"></path><path d="M400.45,369.84a.21.21,0,0,1-.16-.07.23.23,0,0,1,0-.32,7.36,7.36,0,0,1,7.13-1.43.23.23,0,0,1,.14.29.23.23,0,0,1-.3.14,6.83,6.83,0,0,0-6.65,1.33A.19.19,0,0,1,400.45,369.84Z" style="fill:#263238"></path><path d="M398.33,374.08a.26.26,0,0,1-.21-.14,17.43,17.43,0,0,1-.74-8.89.23.23,0,0,1,.27-.19.23.23,0,0,1,.19.26,17,17,0,0,0,.71,8.64.23.23,0,0,1-.13.3Z" style="fill:#263238"></path><path d="M393.77,399.76a.24.24,0,0,1-.22-.23l-.3-6.27c-.87-20.88-15.19-35.07-15.34-35.21a.23.23,0,0,1,.33-.33c.14.14,14.59,14.46,15.47,35.52l.3,6.28a.23.23,0,0,1-.22.24Z" style="fill:#263238"></path><path d="M383.82,365.89h0l-.06,0-.08,0a14.88,14.88,0,0,0-5.89-1.14.23.23,0,1,1,0-.46,15.44,15.44,0,0,1,6.08,1.17l.07,0h0a.23.23,0,0,1-.11.44Z" style="fill:#263238"></path><path d="M385.84,368.58h0a.25.25,0,0,1-.21-.25A19.94,19.94,0,0,0,383,357.05a.23.23,0,0,1,.07-.32.22.22,0,0,1,.31.07,20.35,20.35,0,0,1,2.74,11.57A.23.23,0,0,1,385.84,368.58Z" style="fill:#263238"></path><path d="M387.93,372.15a.3.3,0,0,1-.15-.07,6.21,6.21,0,0,0-5.75-1.41.23.23,0,0,1-.28-.17.24.24,0,0,1,.16-.28,6.56,6.56,0,0,1,6.2,1.54.22.22,0,0,1,0,.32A.21.21,0,0,1,387.93,372.15Z" style="fill:#263238"></path><path d="M390.59,378a.17.17,0,0,1-.1,0,.23.23,0,0,1-.1-.31,15.1,15.1,0,0,0,1.23-7.55.23.23,0,1,1,.46,0,15.31,15.31,0,0,1-1.28,7.8A.23.23,0,0,1,390.59,378Z" style="fill:#263238"></path><path d="M406.68,400.75c0,7.32-3.29,13.25-13.26,13.25-9.52,0-13.27-5.93-13.27-13.25a13.26,13.26,0,0,1,2.29-7.46h21.95A13.26,13.26,0,0,1,406.68,400.75Z" style="fill:#263238"></path></g><g id="freepik--Character--inject-3"><path d="M271.11,326.79h6l10.14,84.37c.26,1.79-1.13,2.5-2.94,2.5h0c-1.47,0-2.72-.18-2.93-1.64Z" style="fill:#263238"></path><path d="M271.11,326.79h6l10.14,84.37c.26,1.79-1.13,2.5-2.94,2.5h0c-1.47,0-2.72-.18-2.93-1.64Z" style="fill:#fff;opacity:0.2"></path><path d="M252.11,326.79h6l5,84.56c.13,1.73-1.25,2.31-3,2.31h0c-1.57,0-2.87-.31-3-1.87Z" style="fill:#263238"></path><path d="M252.11,326.79h6l5,84.56c.13,1.73-1.25,2.31-3,2.31h0c-1.57,0-2.87-.31-3-1.87Z" style="fill:#fff;opacity:0.2"></path><path d="M237.89,326.79h-6l-5.31,84.56c-.13,1.73,1.24,2.31,3,2.31h0c1.57,0,2.87-.31,3-1.87Z" style="fill:#263238"></path><path d="M237.89,326.79h-6l-5.31,84.56c-.13,1.73,1.24,2.31,3,2.31h0c1.57,0,2.87-.31,3-1.87Z" style="fill:#fff;opacity:0.2"></path><path d="M218.89,326.79h-6l-10.44,84.37c-.27,1.79,1.12,2.5,2.93,2.5h0c1.47,0,2.72-.18,2.94-1.64Z" style="fill:#263238"></path><path d="M218.89,326.79h-6l-10.44,84.37c-.27,1.79,1.12,2.5,2.93,2.5h0c1.47,0,2.72-.18,2.94-1.64Z" style="fill:#fff;opacity:0.2"></path><path d="M261.06,246.12l-25,76.23h54.67L300.19,242H266.71A6,6,0,0,0,261.06,246.12Z" style="fill:#263238"></path><path d="M261.06,246.12l-25,76.23h54.67L300.19,242H266.71A6,6,0,0,0,261.06,246.12Z" style="fill:#fff;opacity:0.2"></path><path d="M252.51,316.24H198.36a4.53,4.53,0,0,0-4.53,4.53v3.16a4.53,4.53,0,0,0,4.53,4.53h54.15Z" style="fill:#263238"></path><path d="M252.51,316.24H198.36a4.53,4.53,0,0,0-4.53,4.53v3.16a4.53,4.53,0,0,0,4.53,4.53h54.15Z" style="fill:#fff;opacity:0.1"></path><path d="M295.62,246.49l-7.05,61.24a9.62,9.62,0,0,1-9.55,8.51H241.29a4.53,4.53,0,0,0-4.53,4.53v3.16a4.53,4.53,0,0,0,4.53,4.53H287a9.61,9.61,0,0,0,9.56-8.67L304.23,242h-3.6A5,5,0,0,0,295.62,246.49Z" style="fill:#263238"></path><path d="M295.62,246.49l-7.05,61.24a9.62,9.62,0,0,1-9.55,8.51H241.29a4.53,4.53,0,0,0-4.53,4.53v3.16a4.53,4.53,0,0,0,4.53,4.53H287a9.61,9.61,0,0,0,9.56-8.67L304.23,242h-3.6A5,5,0,0,0,295.62,246.49Z" style="fill:#fff;opacity:0.2"></path><polygon points="197.4 384.18 199.42 400.4 190.37 401.75 187 386.45 197.4 384.18" style="fill:#ff8b7b"></polygon><path d="M189.74,401.62l10.32-1.39a.83.83,0,0,1,.89.54l3,8.14a1.4,1.4,0,0,1-.81,1.8l-.29.07c-3.73.44-7.06.68-11.69,1.31-5.46.74-4,1.2-10.4,2.16-3.86.57-5.16-3.73-3.55-4.17,7.38-2,7.86-4.33,10.39-7.41A3.37,3.37,0,0,1,189.74,401.62Z" style="fill:#263238"></path><path d="M185.1,404.13c-1.18.16-2.42.11-2.88-.34a.86.86,0,0,1-.11-1,1.19,1.19,0,0,1,.63-.62c1.52-.65,5.07.79,5.23.86a.22.22,0,0,1,.14.22.24.24,0,0,1-.16.2A15.51,15.51,0,0,1,185.1,404.13Zm-1.75-1.63a1.19,1.19,0,0,0-.42.11.64.64,0,0,0-.4.37c-.13.3-.05.43,0,.5.52.55,2.91.25,4.64-.21A10.32,10.32,0,0,0,183.35,402.5Z" style="fill:#407BFF"></path><path d="M187.92,403.48h-.1c-1.19-.35-3.74-2.09-3.68-3.18,0-.26.14-.6.75-.74a1.63,1.63,0,0,1,1.29.21c1.34.83,1.94,3.34,2,3.46a.21.21,0,0,1-.07.21A.26.26,0,0,1,187.92,403.48ZM185.09,400H185c-.4.08-.4.25-.41.31,0,.65,1.73,2.05,3,2.59a5.3,5.3,0,0,0-1.65-2.73,1.15,1.15,0,0,0-.81-.18Z" style="fill:#407BFF"></path><polygon points="187.44 388.44 189.13 396.07 198.71 394.66 197.65 386.17 197.84 386.17 187.44 388.44" style="fill:#263238;opacity:0.2"></polygon><path d="M235.89,282.89s-51.52,7.51-58.43,24.4,8.7,84,8.7,84l14.1-1.15s-.75-42.86-3.6-71.77l39.23-1.92,36-36.68Z" style="fill:#407BFF"></path><path d="M235.89,282.89s-51.52,7.51-58.43,24.4,8.7,84,8.7,84l14.1-1.15s-.75-42.86-3.6-71.77l39.23-1.92,36-36.68Z" style="opacity:0.5"></path><polygon points="185.01 389.69 200.95 387.94 200.95 392.31 185.89 393.63 185.01 389.69" style="fill:#407BFF"></polygon><polygon points="232.82 386.58 233.69 402.9 224.57 403.6 222.29 388.11 232.82 386.58" style="fill:#ff8b7b"></polygon><path d="M224.41,402.66l10.38-.65a.83.83,0,0,1,.86.6l2.41,8.33a1.39,1.39,0,0,1-.94,1.73,1.36,1.36,0,0,1-.29.06c-3.74.17-7.09.17-11.75.47-5.5.35-4.06.92-10.53,1.42-3.89.3-4.88-4.08-3.24-4.41,7.5-1.43,8.14-3.76,10.89-6.65A3.34,3.34,0,0,1,224.41,402.66Z" style="fill:#263238"></path><path d="M219.66,404.85c-1.18.08-2.42-.06-2.84-.55a.86.86,0,0,1,0-1,1.19,1.19,0,0,1,.68-.57c1.56-.54,5,1.15,5.15,1.22a.23.23,0,0,1,.13.23.25.25,0,0,1-.17.2A17.67,17.67,0,0,1,219.66,404.85ZM218,403.09a1.5,1.5,0,0,0-.42.09.62.62,0,0,0-.43.34c-.15.29-.08.42,0,.5.48.59,2.88.45,4.64.12A10.55,10.55,0,0,0,218,403.09Z" style="fill:#407BFF"></path><path d="M222.52,404.4a.1.1,0,0,1-.09,0C221.26,404,218.84,402,219,401c0-.26.18-.59.79-.69a1.63,1.63,0,0,1,1.28.31c1.28.92,1.69,3.47,1.71,3.59a.21.21,0,0,1-.08.21A.3.3,0,0,1,222.52,404.4ZM220,400.69h-.13c-.4.06-.42.22-.43.28,0,.65,1.58,2.17,2.81,2.79a5.35,5.35,0,0,0-1.45-2.84,1.2,1.2,0,0,0-.8-.23Z" style="fill:#407BFF"></path><polygon points="233.31 395.64 232.82 386.58 232.82 386.58 222.29 388.11 223.5 396.3 233.31 395.64" style="fill:#263238;opacity:0.2"></polygon><path d="M285.34,282.12s10.75,34.94-10.75,35.71-49.91,0-49.91,0,10,27.54,10,71.79l-13.5,1.15S198.51,315.94,204,305.92c7.3-13.43,58-23.8,58-23.8Z" style="fill:#407BFF"></path><path d="M285.34,282.12s10.75,34.94-10.75,35.71-49.91,0-49.91,0,10,27.54,10,71.79l-13.5,1.15S198.51,315.94,204,305.92c7.3-13.43,58-23.8,58-23.8Z" style="opacity:0.4"></path><polygon points="219.65 388.95 220.74 393.26 235.82 391.99 235.82 387.84 219.65 388.95" style="fill:#407BFF"></polygon><g id="freepik--group--inject-3"><path d="M249.77,217.93c.08,3.33,0,6.44-.16,9.65s-.38,6.38-.7,9.58a112.33,112.33,0,0,1-3.51,19.33l-.81,2.45-.2.61,0,.16-.09.23-.24.66a10.37,10.37,0,0,1-1.22,2.15,12.44,12.44,0,0,1-2.82,2.79,18.78,18.78,0,0,1-2.79,1.68c-3.24,1.51-21,3.38-27.47,3l-.4-4.34s12.55-4.28,15.3-5.18a33.38,33.38,0,0,0,7.26-3.15,4.23,4.23,0,0,0,1.52-1.39c0-.15-.25.51,0-.54l.5-2a129.68,129.68,0,0,0,2.22-17.45c.22-3,.36-6,.5-9s.18-6.09.22-9Z" style="fill:#ff8b7b"></path><path d="M209.57,265.82l-7.94-4,.38,8.84s7.39,2.46,8.49-.84Z" style="fill:#ff8b7b"></path><path d="M197.32,268.16l.38,2.46a1.9,1.9,0,0,0,2.32,1.49l2-1.47-.38-8.84-3.31,2.88C196.8,266.07,197.22,267.23,197.32,268.16Z" style="fill:#ff8b7b"></path><path d="M254.62,211.2c1.53,8-4.68,26.79-4.68,26.79l-20.27-2.55c3.11-7.12,4.22-17.4,8.14-24.12C241.46,205.29,253,202.52,254.62,211.2Z" style="fill:#407BFF"></path><path d="M254.62,211.2c1.53,8-4.68,26.79-4.68,26.79l-20.27-2.55c3.11-7.12,4.22-17.4,8.14-24.12C241.46,205.29,253,202.52,254.62,211.2Z" style="opacity:0.1"></path><path d="M283.54,205.46a4.85,4.85,0,0,1,4.18,5.44.59.59,0,0,1,0,.13,199.07,199.07,0,0,0-2.06,23.51c-.22,6.62-.13,12.93.08,18.63.48,13.36-.08,26.3-.17,29.77l-43.91-.65c-2.88-42.63-4.25-60.19-2.06-69.77a8.09,8.09,0,0,1,6.1-6.11c1.71-.38,3.76-.79,5.94-1.12.77-.06,1.54-.21,2.32-.3a170.78,170.78,0,0,1,19.33-.43c1.22,0,2.45.11,3.66.18C279.33,205,281.64,205.21,283.54,205.46Z" style="fill:#407BFF"></path><path d="M270.94,182.89c-1.1,6.23-2.09,17.64,2.33,21.7-9.83,8-15.62,18.49-17.74,16.51-1.12-1-2.72-14.08-1.57-16.13,6.9-1.79,6.62-6.92,5.32-11.73Z" style="fill:#ff8b7b"></path><path d="M272.92,208.86l-15.65,15.92a29,29,0,0,1-4.75-12c-.85-5.36.67-6.52,1.53-6.77a3.07,3.07,0,0,1,1.93-5.45h15.89a3.07,3.07,0,0,1,3.07,3.07,3.17,3.17,0,0,1-.24,1.2C276.05,205.93,272.92,208.86,272.92,208.86Z" style="fill:#407BFF"></path><path d="M266.2,187.11l-6.9,6.12a19.89,19.89,0,0,1,.67,3.42c2.64-.43,6.22-3.41,6.44-6.2A9.38,9.38,0,0,0,266.2,187.11Z" style="isolation:isolate;opacity:0.2"></path><path d="M247.68,167.19c-4.12.54-5.75,7.86-1,13.39S253.21,166.46,247.68,167.19Z" style="fill:#263238"></path><path d="M268.59,171.63c1.24,8.34,2.39,13.15-.87,18.26-4.91,7.68-15.88,6.07-19.6-1.73-3.33-7-4.81-19.49,2.57-24.46a11.51,11.51,0,0,1,17.9,7.93Z" style="fill:#ff8b7b"></path><path d="M260.78,172.88a4.57,4.57,0,0,0,3.83,3.13,7.82,7.82,0,0,1,.62,5.79l3.07.4a4.86,4.86,0,0,1,4.48-4.93q-1.26,5-3,9.91a25.52,25.52,0,0,0,7.45-10.45,14.56,14.56,0,0,0,1.11-6.13,7.9,7.9,0,0,0-2.6-5.54c-2.09-1.76-5.13-2-7.77-1.27C263.33,165.07,258.73,167.48,260.78,172.88Z" style="fill:#263238"></path><path d="M256.06,178.11c.15.68-.09,1.3-.54,1.39s-.9-.38-1.05-1.05.1-1.29.54-1.38S255.92,177.45,256.06,178.11Z" style="fill:#263238"></path><path d="M254.36,188.16c.15.67-.1,1.3-.54,1.39s-.9-.38-1-1.05.1-1.29.54-1.38S254.22,187.5,254.36,188.16Z" style="fill:#263238"></path><path d="M248.1,179.92c.15.67-.1,1.29-.54,1.39s-.9-.38-1-1.05.1-1.29.53-1.38S247.94,179.25,248.1,179.92Z" style="fill:#263238"></path><path d="M257.82,174.35a.41.41,0,0,1-.41-.07,3.22,3.22,0,0,0-2.8-.77.41.41,0,0,1-.53-.23.29.29,0,0,1,0-.09.38.38,0,0,1,.25-.49h0a4,4,0,0,1,3.54.94.4.4,0,0,1,.06.56h0A.33.33,0,0,1,257.82,174.35Z" style="fill:#263238"></path><path d="M245.21,177.78a.37.37,0,0,1-.25,0,.42.42,0,0,1-.3-.49A4,4,0,0,1,247,174.5a.4.4,0,0,1,.51.24h0a.39.39,0,0,1-.23.5h0a3.23,3.23,0,0,0-1.85,2.22A.36.36,0,0,1,245.21,177.78Z" style="fill:#263238"></path><path d="M210.19,238.77l10.4,33.51s10.28-3.24,14.78-.42a47.1,47.1,0,0,1,7.74,6.13l-7.18-36.48S226.38,230.24,210.19,238.77Z" style="fill:#407BFF"></path><path d="M235.93,241.51,243.11,278s11.16-12.07,21.39-7l3.47,1.79-4.2-36.46S250.48,229.53,235.93,241.51Z" style="fill:#407BFF"></path><path d="M235.93,241.51,243.11,278s11.16-12.07,21.39-7l3.47,1.79-4.2-36.46S250.48,229.53,235.93,241.51Z" style="fill:#fff;opacity:0.8"></path><path d="M210.19,238.77l10.4,33.51s10.28-3.24,14.78-.42a47.1,47.1,0,0,1,7.74,6.13l-7.18-36.48S226.38,230.24,210.19,238.77Z" style="fill:#fff;opacity:0.8"></path><path d="M243.09,277.62c-8.68-2.8-17.13-5.76-24.06.4-2.57-9.91-6.39-19.35-9.28-29.16-2.32-7.87-2.33-6.49,1.82-8.78,3.59-2,20.36-3.78,23.91,5.42C236.77,248.85,242.46,276.85,243.09,277.62Z" style="fill:#263238"></path><path d="M270.58,276.1c-5.13-4.49-13.2-4.25-18.53,0-2.28,1.81-5.46,3.06-5.45,2.84v-.05l-7.41-34.08-.3.22c1.52-5.15,9.4-7.64,14.39-7.8a22.67,22.67,0,0,1,12.4,4S269.47,266.21,270.58,276.1Z" style="fill:#263238"></path><path d="M246.6,278.93s-3,.93-4.17-1.52l-7.31-32.78s1.23,2.15,3.76.39l.3-.22,7.41,34.08A.18.18,0,0,1,246.6,278.93Z" style="fill:#263238"></path><path d="M246.6,278.93s-3,.93-4.17-1.52l-7.31-32.78s1.23,2.15,3.76.39l.3-.22,7.41,34.08A.18.18,0,0,1,246.6,278.93Z" style="fill:#fff;opacity:0.1"></path><path d="M281.32,210c-3.75-.55-5.3.79-7.9,5.91-2.4,4.73-3.71,18.36-3.71,18.36-.47,7.46-1.42,6.62,5.64,7.16,4.52.35,10.25,1.3,10.25,1.3S292.53,211.61,281.32,210Z" style="opacity:0.1"></path><path d="M291.76,217c.08,3.33,0,6.44-.16,9.65s-.38,6.38-.69,9.58a112.35,112.35,0,0,1-3.52,19.33l-.8,2.45-.2.61-.05.16-.08.23-.25.66a10.44,10.44,0,0,1-1.22,2.16,12.65,12.65,0,0,1-2.82,2.79,17.91,17.91,0,0,1-2.79,1.67A38.05,38.05,0,0,1,269,269.42a87.8,87.8,0,0,1-19.43,1l-.34-6.37,4.43-.91c1.49-.31,3-.68,4.42-1,2.93-.71,5.82-1.46,8.56-2.36a33.35,33.35,0,0,0,7.26-3.14,4.17,4.17,0,0,0,1.52-1.4c0-.15-.25.52,0-.53l.5-2a128.09,128.09,0,0,0,2.22-17.45c.22-3,.36-6,.5-9s.18-6.08.22-9Z" style="fill:#ff8b7b"></path><path d="M251.88,264.41l-7-5.05L242.77,270s6.91,3,8.89-.5Z" style="fill:#ff8b7b"></path><path d="M237.41,262.19l-.51,3.42a3.15,3.15,0,0,0,2.38,3.54l3.5.85,2.11-10.64-4.46.14A3.16,3.16,0,0,0,237.41,262.19Z" style="fill:#ff8b7b"></path><path d="M292,210.82c4.76,6.58,3.19,28.74,3.19,28.74l-22.08-2.12s-2.3-12.4,1-22.37C277.61,204.25,286.19,202.85,292,210.82Z" style="fill:#407BFF"></path></g><path d="M247.46,183.38h-.06a4.17,4.17,0,0,1-4.1-4.23,4.09,4.09,0,0,1,1.26-2.93,4.24,4.24,0,0,1,3-1.18,4.17,4.17,0,0,1,4.1,4.24h0A4.18,4.18,0,0,1,247.46,183.38Zm0-7.4a3.23,3.23,0,0,0-.05,6.46h.05a3.23,3.23,0,0,0,0-6.46Z" style="fill:#407BFF"></path><path d="M257.07,181.1H257a4.17,4.17,0,0,1-4.1-4.24,4.08,4.08,0,0,1,1.26-2.92,4.17,4.17,0,0,1,7.07,3.05h0A4.17,4.17,0,0,1,257.07,181.1Zm0-7.4a3.23,3.23,0,0,0-3.22,3.18,3.23,3.23,0,1,0,3.27-3.18Z" style="fill:#407BFF"></path><path d="M251.27,177.73l-.93-.18c0-.16.33-1.54,1.33-1.84.63-.19,1.31.09,2,.83l-.67.66c-.45-.46-.84-.67-1.1-.59S251.33,177.42,251.27,177.73Z" style="fill:#407BFF"></path><polygon points="260.82 176.73 260.6 175.82 270.09 173.56 271.93 173.97 271.73 174.88 270.1 174.52 260.82 176.73" style="fill:#407BFF"></polygon><path d="M251.69,178a24.84,24.84,0,0,1-2,6.41,4,4,0,0,0,3.34-.09Z" style="fill:#ff5652"></path><path d="M274.29,178.14a8,8,0,0,1-2.79,5.45c-2.15,1.81-4.38.17-4.75-2.47-.34-2.37.39-6.17,3-7S274.48,175.55,274.29,178.14Z" style="fill:#ff8b7b"></path><path d="M264.23,154c-11.32-4.86-21.33,4.13-23.31,7.43s-3.83,6.39-1.74,9.61c-.83.22-1.19,1.21-1.82,1.78a2,2,0,0,0-.63,1c-.36,1.4,1.81,2.31,2.34,2.93a1.86,1.86,0,0,1-1.82,3,6.28,6.28,0,0,0,3.87-.65,3.45,3.45,0,0,0,1.45-4.1.6.6,0,0,1,0-.35,1.8,1.8,0,0,1,.91-.85,49.35,49.35,0,0,1,7.62-1.81,14.88,14.88,0,0,0,8.33-4.7c2.92-3.33,11.49-3.26,14.86-3.18C274.08,164,273.56,158,264.23,154Z" style="fill:#263238"></path></g><g id="freepik--Books--inject-3"><path d="M338.93,240.75H286c-2.29,0-4.15,2.88-4.15,6.44s1.86,6.43,4.15,6.43h53Z" style="fill:#fff;opacity:0.9"></path><path d="M338.93,240.75H286c-2.29,0-4.15,2.88-4.15,6.44s1.86,6.43,4.15,6.43h53Z" style="fill:#407BFF"></path><path d="M338.93,254.66c-10.9,0-41.52.19-52.41,0-7.46-.14-7.86-14.44-.54-14.94,5.1-.35,10.35,0,15.46,0h37.49a1,1,0,0,1,0,2.07H288.24c-2.39,0-4.09,0-5,2.84-.8,2.44-.55,7.42,2.73,8a7,7,0,0,0,1.12,0h51.86a1,1,0,0,1,0,2.07Z" style="fill:#407BFF"></path><g style="opacity:0.2"><path d="M338.93,254.66c-10.9,0-41.52.19-52.41,0-7.46-.14-7.86-14.44-.54-14.94,5.1-.35,10.35,0,15.46,0h37.49a1,1,0,0,1,0,2.07H288.24c-2.39,0-4.09,0-5,2.84-.8,2.44-.55,7.42,2.73,8a7,7,0,0,0,1.12,0h51.86a1,1,0,0,1,0,2.07Z" style="fill:#fff"></path></g><path d="M360.06,240.75H330.68c-2.29,0-4.15,2.88-4.15,6.44s1.86,6.43,4.15,6.43h29.38Z" style="fill:#407BFF"></path><path d="M360.06,240.75H330.68c-2.29,0-4.15,2.88-4.15,6.44s1.86,6.43,4.15,6.43h29.38Z" style="fill:#fff;opacity:0.9"></path><path d="M360.06,254.66c-10.9,0-17.91.19-28.81,0-7.46-.14-7.86-14.44-.54-14.94,5.1-.35,10.35,0,15.46,0h13.89a1,1,0,0,1,0,2.07H333c-2.39,0-4.1,0-5,2.84-.8,2.44-.54,7.42,2.73,8a7,7,0,0,0,1.12,0h28.26a1,1,0,0,1,0,2.07Z" style="fill:#407BFF"></path><g style="opacity:0.2"><path d="M360.06,254.66c-10.9,0-17.91.19-28.81,0-7.46-.14-7.86-14.44-.54-14.94,5.1-.35,10.35,0,15.46,0h13.89a1,1,0,0,1,0,2.07H333c-2.39,0-4.1,0-5,2.84-.8,2.44-.54,7.42,2.73,8a7,7,0,0,0,1.12,0h28.26a1,1,0,0,1,0,2.07Z" style="fill:#fff"></path></g><path d="M345.82,265.09H290.71c-2.38,0-4.31,3-4.31,6.69s1.93,6.69,4.31,6.69h55.11Z" style="fill:#fff;opacity:0.9"></path><path d="M345.82,265.09H290.71c-2.38,0-4.31,3-4.31,6.69s1.93,6.69,4.31,6.69h55.11Z" style="fill:#263238"></path><path d="M296.69,272.34c0,1.24-1.15,1.81-2.61,1.81H291l1.14-5.69H295c1.28,0,2,.48,2,1.33a1.49,1.49,0,0,1-1,1.42A1.18,1.18,0,0,1,296.69,272.34Zm-1.6,0c0-.34-.28-.48-.67-.48H293l-.23,1.16h1.4C294.73,273,295.09,272.77,295.09,272.31Zm-1.64-2.69-.22,1.1h1.15c.57,0,.88-.23.88-.65s-.25-.45-.67-.45Z" style="fill:#fff"></path><path d="M301.3,273h-2.43l-.65,1.11h-1.7l3.65-5.69h1.58l1.38,5.69h-1.6Zm-.25-1.18-.38-1.85-1.09,1.85Z" style="fill:#fff"></path><path d="M310.13,268.46,309,274.15h-1.61l.44-2.21h-2.19l-.43,2.21h-1.61l1.13-5.69h1.61l-.42,2.13h2.19l.42-2.13Z" style="fill:#fff"></path><path d="M314.23,273h-2.42l-.66,1.11h-1.7l3.65-5.69h1.59l1.37,5.69h-1.6Zm-.24-1.18-.38-1.85-1.09,1.85Z" style="fill:#fff"></path><path d="M316.27,273.65l.63-1.2a3.56,3.56,0,0,0,1.9.56c.62,0,1-.19,1-.5,0-.77-2.76-.34-2.76-2.13,0-1.23,1.05-2,2.73-2a3.94,3.94,0,0,1,2.05.49l-.58,1.2a2.9,2.9,0,0,0-1.57-.44c-.66,0-1,.25-1,.56,0,.78,2.76.33,2.76,2.09,0,1.22-1.07,2-2.74,2A4.44,4.44,0,0,1,316.27,273.65Z" style="fill:#fff"></path><path d="M325.88,273h-2.43l-.65,1.11h-1.7l3.65-5.69h1.58l1.38,5.69h-1.6Zm-.25-1.18-.38-1.85-1.09,1.85Z" style="fill:#fff"></path><path d="M345.82,277.4a1.08,1.08,0,0,1,0,2.15h0c-11.33,0-43.18.2-54.51,0-7.76-.14-8.18-15-.57-15.54,5.31-.36,10.77,0,16.09,0h39a1.08,1.08,0,0,1,0,2.15H293.1c-2.48,0-4.26,0-5.22,3-.83,2.54-.57,7.72,2.83,8.28a7.62,7.62,0,0,0,1.17,0h53.94Z" style="fill:#263238"></path><path d="M367.8,265.09H337.24c-2.38,0-4.31,3-4.31,6.69s1.93,6.69,4.31,6.69H367.8Z" style="fill:#407BFF"></path><path d="M367.8,265.09H337.24c-2.38,0-4.31,3-4.31,6.69s1.93,6.69,4.31,6.69H367.8Z" style="fill:#fff;opacity:0.9"></path><path d="M367.8,279.55c-11.33,0-18.63.2-30,0-7.76-.14-8.18-15-.57-15.54,5.31-.36,10.77,0,16.08,0H367.8a1.08,1.08,0,0,1,0,2.15H339.63c-2.49,0-4.26,0-5.23,3-.83,2.54-.56,7.72,2.84,8.28a7.49,7.49,0,0,0,1.16,0h29.4a1.08,1.08,0,0,1,0,2.15Z" style="fill:#407BFF"></path><g style="opacity:0.2"><path d="M367.8,279.55c-11.33,0-18.63.2-30,0-7.76-.14-8.18-15-.57-15.54,5.31-.36,10.77,0,16.08,0H367.8a1.08,1.08,0,0,1,0,2.15H339.63c-2.49,0-4.26,0-5.23,3-.83,2.54-.56,7.72,2.84,8.28a7.49,7.49,0,0,0,1.16,0h29.4a1.08,1.08,0,0,1,0,2.15Z" style="fill:#fff"></path></g><path d="M334.47,254.62h-53a4.34,4.34,0,0,0,0,8.67h53Z" style="fill:#fff;opacity:0.9"></path><path d="M334.47,254.62h-53a4.34,4.34,0,0,0,0,8.67h53Z" style="fill:#407BFF"></path><path d="M334.47,254.62h-53a4.34,4.34,0,0,0,0,8.67h53Z" style="opacity:0.2"></path><path d="M334.47,254.62h-53a4.34,4.34,0,0,0,0,8.67h53Z" style="opacity:0.2"></path><path d="M284.52,256.71h1.82a2,2,0,1,1,0,4h-1.82Zm1.77,3.24a1.24,1.24,0,1,0,0-2.48h-.84V260Z" style="fill:#fff"></path><path d="M289.06,256.71a.56.56,0,0,1,1.11,0,.52.52,0,0,1-.56.51A.51.51,0,0,1,289.06,256.71Zm.11.93h.89v3.07h-.89Z" style="fill:#fff"></path><path d="M290.66,259.17a1.59,1.59,0,0,1,1.71-1.58,1.41,1.41,0,0,1,1.37.78l-.69.38a.75.75,0,0,0-.69-.43.85.85,0,0,0,0,1.7.74.74,0,0,0,.69-.42l.69.38a1.42,1.42,0,0,1-1.37.77A1.58,1.58,0,0,1,290.66,259.17Z" style="fill:#fff"></path><path d="M296.28,260.56a1.27,1.27,0,0,1-.72.19,1,1,0,0,1-1.15-1.1v-1.26h-.48v-.68h.48V257h.89v.75h.76v.68h-.76v1.25a.36.36,0,0,0,.38.41.58.58,0,0,0,.36-.12Z" style="fill:#fff"></path><path d="M296.67,256.71a.5.5,0,0,1,.56-.49.49.49,0,0,1,.55.48.56.56,0,0,1-1.11,0Zm.11.93h.89v3.07h-.89Z" style="fill:#fff"></path><path d="M298.27,259.17a1.69,1.69,0,1,1,1.69,1.58A1.58,1.58,0,0,1,298.27,259.17Zm2.47,0a.79.79,0,1,0-.78.85A.78.78,0,0,0,300.74,259.17Z" style="fill:#fff"></path><path d="M305.37,259v1.76h-.89v-1.62c0-.5-.23-.73-.62-.73s-.74.26-.74.83v1.52h-.89v-3.07h.85V258a1.33,1.33,0,0,1,1-.41A1.2,1.2,0,0,1,305.37,259Z" style="fill:#fff"></path><path d="M308.89,259v1.75h-.84v-.38a1,1,0,0,1-.93.42c-.72,0-1.15-.4-1.15-.93s.38-.92,1.32-.92H308c0-.38-.23-.6-.71-.6a1.49,1.49,0,0,0-.88.28l-.32-.62a2.33,2.33,0,0,1,1.32-.37C308.35,257.59,308.89,258,308.89,259Zm-.89.78v-.32h-.61c-.42,0-.55.16-.55.36s.19.37.5.37A.66.66,0,0,0,308,259.74Z" style="fill:#fff"></path><path d="M311.6,257.59v.82h-.2a.76.76,0,0,0-.82.86v1.45h-.89v-3.07h.85v.4A1.26,1.26,0,0,1,311.6,257.59Z" style="fill:#fff"></path><path d="M315.28,257.64l-1.39,3.26a1.26,1.26,0,0,1-1.27,1,1.37,1.37,0,0,1-.86-.28l.33-.63a.78.78,0,0,0,.5.19c.25,0,.38-.11.5-.38l0,0-1.33-3.09h.91l.87,2.08.86-2.08Z" style="fill:#fff"></path><path d="M334.47,264c-10.9,0-41.52.13-52.41,0-7.46-.09-7.86-9.72-.54-10.06,5.1-.24,10.35,0,15.46,0h37.49c1.33,0,1.33,1.39,0,1.39H283.78c-2.39,0-4.1,0-5,1.92-.8,1.64-.55,5,2.72,5.36a10.46,10.46,0,0,0,1.12,0h51.87c1.33,0,1.33,1.39,0,1.39Z" style="fill:#407BFF"></path><g style="opacity:0.2"><path d="M334.47,264c-10.9,0-41.52.13-52.41,0-7.46-.09-7.86-9.72-.54-10.06,5.1-.24,10.35,0,15.46,0h37.49c1.33,0,1.33,1.39,0,1.39H283.78c-2.39,0-4.1,0-5,1.92-.8,1.64-.55,5,2.72,5.36a10.46,10.46,0,0,0,1.12,0h51.87c1.33,0,1.33,1.39,0,1.39Z" style="fill:#fff"></path></g><path d="M355.59,254.62H326.21a4.34,4.34,0,0,0,0,8.67h29.38Z" style="fill:#407BFF"></path><path d="M355.59,254.62H326.21a4.34,4.34,0,0,0,0,8.67h29.38Z" style="fill:#fff;opacity:0.9"></path><path d="M355.59,264c-10.89,0-17.91.13-28.8,0-7.46-.09-7.86-9.72-.54-10.06,5.1-.24,10.35,0,15.46,0h13.88c1.34,0,1.34,1.39,0,1.39H328.51c-2.39,0-4.1,0-5,1.92-.8,1.64-.55,5,2.72,5.36a10.65,10.65,0,0,0,1.13,0h28.25c1.34,0,1.34,1.39,0,1.39Z" style="fill:#407BFF"></path><g style="opacity:0.2"><path d="M355.59,264c-10.89,0-17.91.13-28.8,0-7.46-.09-7.86-9.72-.54-10.06,5.1-.24,10.35,0,15.46,0h13.88c1.34,0,1.34,1.39,0,1.39H328.51c-2.39,0-4.1,0-5,1.92-.8,1.64-.55,5,2.72,5.36a10.65,10.65,0,0,0,1.13,0h28.25c1.34,0,1.34,1.39,0,1.39Z" style="fill:#fff"></path></g><path d="M293.05,237.31l64.94-.25s-1.53-7.88-2.39-8.05-11.93-8.86-24.14-3.92c-2.67,1.07-4.59,1.88-6,2.47-1.38-.58-3.32-1.37-6-2.42-12.26-4.84-23.26,3.92-24.12,4.1S293.05,237.31,293.05,237.31Z" style="fill:#407BFF"></path><path d="M293.05,237.31l64.94-.25,0-.19c-.24-1.22-1.57-7.7-2.36-7.87a.48.48,0,0,1-.14-.06c-1.55-.75-12.24-8.6-24-3.85-2.68,1.07-4.61,1.88-6,2.47-1.39-.58-3.33-1.37-6-2.42-12.26-4.84-23.26,3.92-24.12,4.1S293.05,237.31,293.05,237.31Z" style="fill:#fff;opacity:0.6000000000000001"></path><path d="M285.64,237.34l65.72-.25s-1.55-8-2.42-8.16-12.07-7.75-24.42-2.75c-2.7,1.09-6,5.28-6,5.28s-3.38-4.17-6.08-5.23C300,221.33,288.85,229,288,229.17S285.64,237.34,285.64,237.34Z" style="fill:#407BFF"></path><path d="M285.64,237.34l65.72-.25s-1.55-8-2.42-8.16-12.07-7.75-24.42-2.75c-2.7,1.09-6,5.28-6,5.28s-3.38-4.17-6.08-5.23C300,221.33,288.85,229,288,229.17S285.64,237.34,285.64,237.34Z" style="fill:#fff;opacity:0.8"></path><polygon points="318.19 233.65 320.29 237.43 315.35 237.45 318.19 233.65" style="fill:#407BFF"></polygon><g style="opacity:0.30000000000000004"><polygon points="318.19 233.65 320.29 237.43 315.35 237.45 318.19 233.65"></polygon></g><path d="M349,229a14.63,14.63,0,0,1,1.06,2.81c.62,2.4,1.27,5.31,1.27,5.31l6.63,0,0-.19c-.24-1.22-1.57-7.7-2.36-7.87a.48.48,0,0,1-.14-.06Z" style="opacity:0.1"></path><path d="M283.14,239.79l32.22.62.07-.06a3.61,3.61,0,0,1,4.8,0l.07.06,33.19-.56,8.37-.13-.63-2.88-40.94.17a3.59,3.59,0,0,0-2.47-1,3.55,3.55,0,0,0-2.47,1l-31.42.07Z" style="fill:#263238"></path><g style="opacity:0.30000000000000004"><polygon points="352.83 236.86 353.49 239.82 361.87 239.69 361.22 236.83 352.83 236.86"></polygon></g><path d="M315.33,231.9s-5.08-5.79-11.2-4.69C304.13,227.21,308.42,226.65,315.33,231.9Z" style="fill:#407BFF"></path><path d="M315.33,231.9s-5.08-5.79-11.2-4.69C304.13,227.21,308.42,226.65,315.33,231.9Z" style="fill:#fff;opacity:0.4"></path><path d="M327.38,234.52s6.75-3.71,12.13-.58C339.51,233.94,335.67,232,327.38,234.52Z" style="fill:#407BFF"></path><path d="M327.38,234.52s6.75-3.71,12.13-.58C339.51,233.94,335.67,232,327.38,234.52Z" style="fill:#fff;opacity:0.4"></path><path d="M321,232.56s5.38-5.5,11.44-4.07C332.42,228.49,328.16,227.7,321,232.56Z" style="fill:#407BFF"></path><path d="M321,232.56s5.38-5.5,11.44-4.07C332.42,228.49,328.16,227.7,321,232.56Z" style="fill:#fff;opacity:0.4"></path><path d="M307.28,231.84s-6.76-3.69-12.14-.54C295.14,231.3,299,229.3,307.28,231.84Z" style="fill:#407BFF"></path><path d="M307.28,231.84s-6.76-3.69-12.14-.54C295.14,231.3,299,229.3,307.28,231.84Z" style="fill:#fff;opacity:0.4"></path><path d="M288.64,249.23l.36-.69a2.22,2.22,0,0,0,1.28.41c.5,0,.81-.18.81-.46,0-.62-1.92-.29-1.92-1.52,0-.8.69-1.31,1.77-1.31a2.51,2.51,0,0,1,1.34.33l-.34.68a2,2,0,0,0-1.05-.29c-.52,0-.83.2-.83.47,0,.64,1.92.31,1.92,1.5,0,.8-.7,1.32-1.78,1.32A2.73,2.73,0,0,1,288.64,249.23Z" style="fill:#263238"></path><path d="M297.06,246.93c0,1-.72,1.6-1.88,1.6h-.86l-.21,1.07h-.91l.78-3.88h1.57C296.52,245.72,297.06,246.17,297.06,246.93Zm-.9.08c0-.38-.27-.56-.72-.56h-.71l-.27,1.35h.76C295.81,247.8,296.16,247.52,296.16,247Z" style="fill:#263238"></path><path d="M300.59,248.77h-1.8l-.51.83h-1l2.51-3.88h.89l.95,3.88h-.89Zm-.15-.68-.32-1.5-.92,1.5Z" style="fill:#263238"></path><path d="M307.23,245.72l-.77,3.88h-.74l-1.44-2.43-.49,2.43h-.89l.78-3.88h.74l1.45,2.43.48-2.43Z" style="fill:#263238"></path><path d="M309,245.72h.9l-.78,3.88h-.9Z" style="fill:#263238"></path><path d="M310.64,249.23l.37-.69a2.19,2.19,0,0,0,1.28.41c.49,0,.8-.18.8-.46,0-.62-1.92-.29-1.92-1.52,0-.8.7-1.31,1.77-1.31a2.51,2.51,0,0,1,1.34.33l-.34.68a2,2,0,0,0-1.05-.29c-.52,0-.83.2-.83.47,0,.64,1.93.31,1.93,1.5,0,.8-.71,1.32-1.79,1.32A2.75,2.75,0,0,1,310.64,249.23Z" style="fill:#263238"></path><path d="M319.54,245.72l-.78,3.88h-.9l.32-1.58h-1.76l-.31,1.58h-.9l.77-3.88h.9l-.3,1.53h1.76l.3-1.53Z" style="fill:#263238"></path></g><g id="freepik--Desk--inject-3"><polygon points="164.98 287.44 164.98 413.02 161.72 413.02 158.82 293.54 154.98 293.54 154.98 287.44 164.98 287.44" style="fill:#263238"></polygon><polygon points="162.08 413.02 158.98 413.02 154.98 287.44 159.08 287.44 162.08 413.02" style="fill:#263238"></polygon><g style="opacity:0.30000000000000004"><polygon points="161.48 413.02 158.98 413.02 155.26 293.68 158.76 293.68 161.48 413.02" style="fill:#fff"></polygon></g><polygon points="164.98 287.44 164.98 413.02 161.72 413.02 158.82 293.54 154.98 293.54 154.98 287.44 164.98 287.44" style="fill:#fff;opacity:0.5"></polygon><polygon points="360.55 413.02 357.44 413.02 353.44 287.44 357.55 287.44 360.55 413.02" style="fill:#263238"></polygon><polygon points="360.55 413.02 357.44 413.02 353.44 287.44 357.55 287.44 360.55 413.02" style="fill:#fff;opacity:0.30000000000000004"></polygon><polygon points="310.44 287.44 310.44 413.02 313.73 413.02 317.6 293.54 357.28 293.54 360.18 413.02 363.44 413.02 363.44 287.44 310.44 287.44" style="fill:#263238"></polygon><polygon points="310.44 287.44 310.44 413.02 313.73 413.02 317.6 293.54 357.28 293.54 360.18 413.02 363.44 413.02 363.44 287.44 310.44 287.44" style="fill:#fff;opacity:0.5"></polygon><polygon points="310.44 413.02 307.33 413.02 306.33 287.44 310.44 287.44 310.44 413.02" style="fill:#263238"></polygon><polygon points="310.44 413.02 307.33 413.02 306.33 287.44 310.44 287.44 310.44 413.02" style="fill:#fff;opacity:0.30000000000000004"></polygon><polygon points="154.77 287.44 154.77 293.54 118.93 293.54 115.06 413.02 111.77 413.02 111.77 287.44 154.77 287.44" style="fill:#263238"></polygon><polygon points="154.77 287.44 154.77 293.54 118.93 293.54 115.06 413.02 111.77 413.02 111.77 287.44 154.77 287.44" style="fill:#fff;opacity:0.5"></polygon><polygon points="154.77 287.44 154.77 293.54 118.93 293.54 115.06 413.02 111.77 413.02 111.77 287.44 154.77 287.44" style="fill:none;opacity:0.30000000000000004"></polygon><polygon points="111.77 413.02 108.67 413.02 107.67 287.44 111.77 287.44 111.77 413.02" style="fill:#263238"></polygon><g style="opacity:0.30000000000000004"><polygon points="111.77 413.02 108.67 413.02 107.67 287.44 111.77 287.44 111.77 413.02" style="fill:#fff"></polygon></g><rect x="102.23" y="279.78" width="205.65" height="7.67" style="fill:#263238"></rect><rect x="102.23" y="279.78" width="205.65" height="7.67" style="fill:#fff;opacity:0.8"></rect><rect x="303.1" y="279.78" width="65.78" height="7.67" style="fill:#263238"></rect><rect x="303.1" y="279.78" width="65.78" height="7.67" style="fill:#fff;opacity:0.6000000000000001"></rect></g><g id="freepik--Device--inject-3"><path d="M132.52,277.66v1.06a1,1,0,0,0,1,1h38a.92.92,0,0,0,.92-.91v-1a.92.92,0,0,0-.92-.92h-9.45a1.73,1.73,0,0,1-1.71-2l3.32-19.16H142.1l-9.25,20.46A3.66,3.66,0,0,0,132.52,277.66Z" style="fill:#263238"></path><path d="M172.46,277.77v1a.91.91,0,0,1-.92.91h-38a1,1,0,0,1-1-1v-1.06a4,4,0,0,1,.09-.84,4.34,4.34,0,0,1,.24-.69l9.25-20.46h21.6l-3.32,19.16a2,2,0,0,0,0,.34,1.74,1.74,0,0,0,1.38,1.65,1.37,1.37,0,0,0,.36,0h9.45A.92.92,0,0,1,172.46,277.77Z" style="fill:#fff;opacity:0.2"></path><path d="M131.63,276.13l9.25-20.46h1.22l-9.25,20.46a3.66,3.66,0,0,0-.33,1.53v1.06a1,1,0,0,0,1,1h-1.23a1,1,0,0,1-1-1v-1.06A3.66,3.66,0,0,1,131.63,276.13Z" style="fill:#263238"></path><polygon points="142.1 255.67 163.7 255.67 162.85 260.56 139.89 260.56 142.1 255.67" style="opacity:0.30000000000000004"></polygon><path d="M201.16,257.82H109a3.75,3.75,0,0,1-3.66-3.37l-5.83-66.59a3,3,0,0,1,3.08-3.37h92.14a3.76,3.76,0,0,1,3.67,3.37l5.82,66.59A3,3,0,0,1,201.16,257.82Z" style="fill:#263238"></path><path d="M108,245.21h92a1.63,1.63,0,0,0,1.66-1.82l-4.81-55a2,2,0,0,0-2-1.82h-92a1.65,1.65,0,0,0-1.67,1.82l4.81,55A2,2,0,0,0,108,245.21Z" style="fill:#407BFF"></path><path d="M108,245.21h92a1.63,1.63,0,0,0,1.66-1.82l-4.81-55a2,2,0,0,0-2-1.82h-92a1.65,1.65,0,0,0-1.67,1.82l4.81,55A2,2,0,0,0,108,245.21Z" style="fill:#fff;opacity:0.6000000000000001"></path><path d="M100.56,184.49h2a3,3,0,0,0-3.08,3.37l5.83,66.59a3.75,3.75,0,0,0,3.66,3.37h-2a3.75,3.75,0,0,1-3.66-3.37l-5.83-66.59A3,3,0,0,1,100.56,184.49Z" style="fill:#407BFF"></path><path d="M100.56,184.49h2a3,3,0,0,0-3.08,3.37l5.83,66.59a3.75,3.75,0,0,0,3.66,3.37h-2a3.75,3.75,0,0,1-3.66-3.37l-5.83-66.59A3,3,0,0,1,100.56,184.49Z" style="fill:#fff;opacity:0.30000000000000004"></path><polygon points="185.26 237.09 119.24 237.09 115.77 197.36 181.79 197.36 185.26 237.09" style="fill:#fff"></polygon><path d="M185.81,237.59h-67l-3.56-40.73h67Zm-66.11-1h65l-3.38-38.73h-65Z" style="fill:#407BFF"></path><rect x="126.73" y="209.09" width="18.35" height="1" style="fill:#263238"></rect><rect x="122.05" y="214.9" width="23.53" height="1" style="fill:#263238"></rect><rect x="122.56" y="220.7" width="23.53" height="1" style="fill:#263238"></rect><rect x="123.07" y="226.5" width="23.53" height="1" style="fill:#263238"></rect><rect x="123.58" y="232.3" width="23.53" height="1" style="fill:#263238"></rect><rect x="159.38" y="209.09" width="18.35" height="1" style="fill:#407BFF"></rect><rect x="154.71" y="214.9" width="23.53" height="1" style="fill:#407BFF"></rect><rect x="155.21" y="220.7" width="23.53" height="1" style="fill:#407BFF"></rect><rect x="155.72" y="226.5" width="23.53" height="1" style="fill:#407BFF"></rect><rect x="156.23" y="232.3" width="11.76" height="1" style="fill:#407BFF"></rect><path d="M134.69,201.82h-.93v-.55h2.54v.55h-.93v2.37h-.68Z"></path><path d="M138.52,204.19l-.56-.81h-.62v.81h-.68v-2.92h1.26c.78,0,1.27.41,1.27,1.06a.94.94,0,0,1-.6.92l.65.94Zm-.64-2.37h-.54v1h.54c.42,0,.63-.19.63-.51S138.3,201.82,137.88,201.82Z"></path><path d="M141.64,203.56h-1.35l-.26.63h-.69l1.3-2.92h.66l1.31,2.92h-.71Zm-.21-.51-.46-1.11-.47,1.11Z"></path><path d="M145.58,201.27v2.92H145l-1.46-1.77v1.77h-.66v-2.92h.56l1.45,1.77v-1.77Z"></path><path d="M146,203.9l.23-.51a1.72,1.72,0,0,0,1,.31c.4,0,.57-.14.57-.32,0-.54-1.7-.17-1.7-1.25,0-.5.4-.91,1.23-.91a2,2,0,0,1,1,.26l-.21.51a1.69,1.69,0,0,0-.8-.23c-.4,0-.56.15-.56.34,0,.53,1.7.16,1.7,1.23,0,.49-.41.91-1.24.91A2.1,2.1,0,0,1,146,203.9Z"></path><path d="M148.93,201.27h.67v2.37h1.46v.55h-2.13Z"></path><path d="M153.39,203.56H152l-.26.63h-.69l1.3-2.92h.67l1.3,2.92h-.7Zm-.22-.51-.46-1.11-.46,1.11Z"></path><path d="M155.11,201.82h-.93v-.55h2.54v.55h-.93v2.37h-.68Z"></path><path d="M157.08,201.27h.68v2.92h-.68Z"></path><path d="M158.26,202.73a1.6,1.6,0,1,1,1.6,1.51A1.51,1.51,0,0,1,158.26,202.73Zm2.51,0a.91.91,0,1,0-.91.93A.89.89,0,0,0,160.77,202.73Z"></path><path d="M164.63,201.27v2.92h-.55l-1.45-1.77v1.77H162v-2.92h.56L164,203v-1.77Z"></path><g style="opacity:0.2"><polygon points="140.77 186.53 137.23 186.53 124.76 245.22 128.3 245.22 140.77 186.53" style="fill:#fff"></polygon><polygon points="121.18 245.22 133.66 186.53 120.36 186.53 107.88 245.22 121.18 245.22" style="fill:#fff"></polygon></g><path d="M139.09,277.78v1a1,1,0,0,0,1,1h31.49a.92.92,0,0,0,.92-.91v-1a.92.92,0,0,0-.92-.92h-9.46a1.34,1.34,0,0,1-.35,0H140.05A1,1,0,0,0,139.09,277.78Z" style="fill:#fff;opacity:0.2"></path><path d="M132.62,276.82h29.11a1.72,1.72,0,0,1-1.38-1.65h-27Z" style="opacity:0.2"></path><path d="M223.61,277.09h3.1a.57.57,0,0,0,.6-.54v-3a.57.57,0,0,0-.6-.54h-2.22a.59.59,0,0,0-.58.4l-.87,3A.55.55,0,0,0,223.61,277.09Z" style="fill:#263238"></path><path d="M219.32,277.09h3.11a.57.57,0,0,0,.59-.54v-3a.57.57,0,0,0-.59-.54H220.2a.58.58,0,0,0-.57.4l-.88,3A.55.55,0,0,0,219.32,277.09Z" style="fill:#263238"></path><path d="M215,277.09h3.11a.56.56,0,0,0,.59-.54v-3a.56.56,0,0,0-.59-.54h-2.23a.58.58,0,0,0-.57.4l-.88,3A.55.55,0,0,0,215,277.09Z" style="fill:#263238"></path><path d="M210.75,277.09h3.1a.56.56,0,0,0,.59-.54v-3a.56.56,0,0,0-.59-.54h-2.23a.58.58,0,0,0-.57.4l-.88,3A.56.56,0,0,0,210.75,277.09Z" style="fill:#263238"></path><path d="M206.46,277.09h3.1a.56.56,0,0,0,.59-.54v-3a.56.56,0,0,0-.59-.54h-2.23a.58.58,0,0,0-.57.4l-.87,3A.55.55,0,0,0,206.46,277.09Z" style="fill:#263238"></path><path d="M202.17,277.09h3.1a.57.57,0,0,0,.6-.54v-3a.57.57,0,0,0-.6-.54H203a.59.59,0,0,0-.57.4l-.87,3A.55.55,0,0,0,202.17,277.09Z" style="fill:#263238"></path><path d="M197.88,277.09H201a.57.57,0,0,0,.6-.54v-3a.57.57,0,0,0-.6-.54h-2.22a.59.59,0,0,0-.58.4l-.87,3A.55.55,0,0,0,197.88,277.09Z" style="fill:#263238"></path><path d="M193.59,277.09h3.11a.57.57,0,0,0,.59-.54v-3a.57.57,0,0,0-.59-.54h-2.23a.57.57,0,0,0-.57.4l-.88,3A.55.55,0,0,0,193.59,277.09Z" style="fill:#263238"></path><path d="M189.3,277.09h3.11a.57.57,0,0,0,.59-.54v-3a.57.57,0,0,0-.59-.54h-2.23a.58.58,0,0,0-.57.4l-.88,3A.55.55,0,0,0,189.3,277.09Z" style="fill:#263238"></path><path d="M185,277.09h3.1a.56.56,0,0,0,.59-.54v-3a.56.56,0,0,0-.59-.54h-2.23a.58.58,0,0,0-.57.4l-.88,3A.56.56,0,0,0,185,277.09Z" style="fill:#263238"></path><path d="M180.73,277.09h3.1a.56.56,0,0,0,.59-.54v-3a.56.56,0,0,0-.59-.54H181.6a.58.58,0,0,0-.57.4l-.87,3A.55.55,0,0,0,180.73,277.09Z" style="fill:#263238"></path><path d="M176.44,277.09h3.1a.57.57,0,0,0,.6-.54v-3a.57.57,0,0,0-.6-.54h-2.23a.59.59,0,0,0-.57.4l-.87,3A.55.55,0,0,0,176.44,277.09Z" style="fill:#263238"></path><path d="M172.15,277.09h3.1a.57.57,0,0,0,.6-.54v-3a.57.57,0,0,0-.6-.54H173a.59.59,0,0,0-.58.4l-.87,3A.55.55,0,0,0,172.15,277.09Z" style="fill:#263238"></path><path d="M167.86,277.09H171a.57.57,0,0,0,.59-.54v-3A.57.57,0,0,0,171,273h-2.23a.57.57,0,0,0-.57.4l-.88,3A.55.55,0,0,0,167.86,277.09Z" style="fill:#263238"></path><path d="M163.57,277.09h3.11a.57.57,0,0,0,.59-.54v-3a.57.57,0,0,0-.59-.54h-2.23a.58.58,0,0,0-.57.4l-.88,3A.55.55,0,0,0,163.57,277.09Z" style="fill:#263238"></path><path d="M160.45,277.42a2.48,2.48,0,0,0,2.58,2.35h64.21a2.48,2.48,0,0,0,2.59-2.35,2.24,2.24,0,0,0-.76-1.67,2.69,2.69,0,0,0-1.76-.69H163a3.29,3.29,0,0,0-.71.09A2.41,2.41,0,0,0,160.45,277.42Z" style="fill:#263238"></path><path d="M160.45,277.42a2.48,2.48,0,0,0,2.58,2.35h64.21a2.48,2.48,0,0,0,2.59-2.35,2.24,2.24,0,0,0-.76-1.67,2.69,2.69,0,0,0-1.76-.69H163a3.29,3.29,0,0,0-.71.09A2.41,2.41,0,0,0,160.45,277.42Z" style="fill:#fff;opacity:0.2"></path><path d="M160.45,277.42a2.48,2.48,0,0,0,2.58,2.35h21.74a2.39,2.39,0,0,0,1.8-2.25,1.87,1.87,0,0,0,0-.42,2.26,2.26,0,0,0-.73-1.25,3.19,3.19,0,0,0-.55-.39l-.3-.14a2.94,2.94,0,0,0-1-.17H162.32A2.41,2.41,0,0,0,160.45,277.42Z" style="fill:#263238"></path></g><g id="freepik--speech-bubbles--inject-3"><g id="freepik--freepik--speech-bubbles--inject-120--inject-3"><path d="M264.82,139.07l-5.48,0a2.76,2.76,0,0,1-2.86-2.65,2.26,2.26,0,0,1,0-.45l2.56-24.09a3.63,3.63,0,0,1,3.5-3.14l52.39-.31a2.75,2.75,0,0,1,2.86,2.64,2.36,2.36,0,0,1,0,.46l-2.57,24.08a3.61,3.61,0,0,1-3.51,3.14l-39.28.24-.18,0c1.18,3.41,6.2,8,6.2,8A23.63,23.63,0,0,1,264.64,139" style="fill:#fff"></path><path d="M280,147.8l-1.58-.22a24,24,0,0,1-13.93-8l-5.11,0a3.31,3.31,0,0,1-2.32-.87,3.2,3.2,0,0,1-1-2.26,3.25,3.25,0,0,1,0-.54l2.56-24.07a4.11,4.11,0,0,1,4-3.59l52.39-.31a3.25,3.25,0,0,1,2.33.86,3.2,3.2,0,0,1,1,2.26,3.25,3.25,0,0,1,0,.54l-2.57,24.08a4.1,4.1,0,0,1-4,3.58l-38.76.23c1.46,3.19,5.77,7.16,5.81,7.2ZM265,138.7a23.19,23.19,0,0,0,11.81,7.51c-1.6-1.62-4.22-4.55-5.06-7l-.18-.51.83-.2,39.28-.24a3.1,3.1,0,0,0,3-2.7l2.56-24.08a1.62,1.62,0,0,0,0-.38,2.24,2.24,0,0,0-.72-1.57A2.28,2.28,0,0,0,315,109l-52.4.32a3.12,3.12,0,0,0-3,2.71L257,136.05a1.62,1.62,0,0,0,0,.38,2.24,2.24,0,0,0,.72,1.57,2.31,2.31,0,0,0,1.62.6l5.5,0v.3Z" style="fill:#407BFF"></path></g><path d="M277.71,118.38l-2.2,11h-2l.92-4.66h-5.68l-.93,4.66h-2l2.2-11h2l-.89,4.5h5.68l.9-4.5Z" style="fill:#263238"></path><path d="M286.94,125.76h-6.66c0,1.33.8,2,2.42,2a3.52,3.52,0,0,0,2.42-.86l.82,1.37a5.23,5.23,0,0,1-3.44,1.16c-2.53,0-4.13-1.46-4.13-3.69a4.7,4.7,0,0,1,4.83-4.9c2.33,0,3.87,1.38,3.87,3.67A5.59,5.59,0,0,1,286.94,125.76Zm-6.48-1.31h4.8a1.9,1.9,0,0,0-2.15-2A2.63,2.63,0,0,0,280.46,124.45Z" style="fill:#263238"></path><path d="M290.33,117.72h2L290,129.37h-2Z" style="fill:#263238"></path><path d="M294.86,117.72h2l-2.33,11.65h-2Z" style="fill:#263238"></path><path d="M297.15,125.79a4.79,4.79,0,0,1,5-4.9c2.48,0,4.08,1.44,4.08,3.67a4.81,4.81,0,0,1-5,4.92C298.76,129.48,297.15,128,297.15,125.79Zm7.09-1.13a2,2,0,0,0-2.22-2.11,2.91,2.91,0,0,0-2.89,3.14,2,2,0,0,0,2.22,2.11A2.91,2.91,0,0,0,304.24,124.66Z" style="fill:#263238"></path><g id="freepik--freepik-speech-bubbles-inject-120--inject-3"><path d="M310.53,169.77l52.39-.31a2.76,2.76,0,0,1,2.86,2.65,2.26,2.26,0,0,1,0,.45l-2.57,24.09a3.64,3.64,0,0,1-3.51,3.14l-23.14.23a23.7,23.7,0,0,1-13.81,8.07s5-4.6,6.2-8l-21.62,0a2.76,2.76,0,0,1-2.86-2.65,2.26,2.26,0,0,1,0-.45L307,172.92A3.63,3.63,0,0,1,310.53,169.77Z" style="fill:#fff"></path><path d="M321.21,208.8l1.18-1.08c.05,0,4.31-4,5.8-7.15l-20.88,0a3.26,3.26,0,0,1-2.32-.86,3.22,3.22,0,0,1-1-2.27,3.09,3.09,0,0,1,0-.53l2.56-24.08a4.12,4.12,0,0,1,4-3.59h0l52.38-.31a3.26,3.26,0,0,1,2.33.86,3.22,3.22,0,0,1,1,2.27,3.09,3.09,0,0,1,0,.53l-2.57,24.08a4.11,4.11,0,0,1-4,3.59l-22.92.23a23.91,23.91,0,0,1-14,8.06Zm8.42-9.23-.23.66c-.84,2.43-3.46,5.36-5.06,7a23.26,23.26,0,0,0,11.81-7.51l.15-.19,23.38-.23a3.12,3.12,0,0,0,3-2.71l2.56-24.07a1.64,1.64,0,0,0,0-.38,2.23,2.23,0,0,0-.72-1.57,2.27,2.27,0,0,0-1.62-.6l-52.4.31a3.12,3.12,0,0,0-3,2.71L305,197.05a2.44,2.44,0,0,0,0,.38,2.23,2.23,0,0,0,.72,1.57,2.27,2.27,0,0,0,1.62.6Z" style="fill:#407BFF"></path></g><path d="M327.44,179.38l-2.2,11h-3.7l.81-4.05h-3.42l-.82,4.05h-3.7l2.2-11h3.7l-.78,3.9H323l.78-3.9Z" style="fill:#263238"></path><path d="M328.08,186.56c0-2.83,2.23-4.93,5.35-4.93,2.84,0,4.67,1.57,4.67,4,0,2.83-2.23,4.93-5.36,4.93C329.9,190.53,328.08,189,328.08,186.56Zm6.42-.79a1.22,1.22,0,0,0-1.27-1.35c-.93,0-1.56.77-1.56,2a1.23,1.23,0,0,0,1.28,1.35C333.87,187.73,334.5,187,334.5,185.77Z" style="fill:#263238"></path><path d="M341.42,178.72H345l-2.32,11.65H339.1Z" style="fill:#263238"></path><path d="M356.15,181.78l-1.72,8.59h-3.34l.16-.78a3.23,3.23,0,0,1-2.33.94,3.69,3.69,0,0,1-3.53-4,4.73,4.73,0,0,1,4.57-4.93,2.78,2.78,0,0,1,2.45,1.06l.19-.91Zm-5.89,5.95c.92,0,1.55-.76,1.55-2a1.22,1.22,0,0,0-1.27-1.35c-.93,0-1.55.77-1.55,2A1.22,1.22,0,0,0,350.26,187.73Z" style="fill:#263238"></path><path d="M195.33,171.91c-1.18,3.42-6.2,8-6.2,8a23.67,23.67,0,0,0,13.81-8.07l.42-.12,5.48,0a3.41,3.41,0,0,0,3.32-2.65,1.82,1.82,0,0,0,.06-.46l1.66-24.08a2.93,2.93,0,0,0-3-3.14l-52.33-.32a3.42,3.42,0,0,0-3.32,2.65,1.82,1.82,0,0,0-.06.46l-1.65,24.08a2.93,2.93,0,0,0,3,3.14l39.24.24" style="fill:#fff"></path><path d="M187.62,180.64l1.18-1.08s4.52-4.17,5.89-7.38L156.52,172a3.42,3.42,0,0,1-3.46-3.66l1.65-24.1a3.24,3.24,0,0,1,.07-.52,3.91,3.91,0,0,1,3.83-3l52.31.31a3.44,3.44,0,0,1,3.46,3.66l-1.66,24.1a3.24,3.24,0,0,1-.07.52,3.91,3.91,0,0,1-3.83,3.05l-5.39,0-.2.06a23.92,23.92,0,0,1-14,8.12Zm8.14-8.58,0,0c-.84,2.42-3.46,5.35-5.06,7a23.26,23.26,0,0,0,11.81-7.51l.1-.12.64-.19,5.55,0a3,3,0,0,0,2.84-2.26,2.33,2.33,0,0,0,0-.37l1.66-24.09a2.5,2.5,0,0,0-.65-1.84,2.56,2.56,0,0,0-1.82-.77l-52.32-.32a2.9,2.9,0,0,0-2.83,2.26,1.57,1.57,0,0,0,0,.37l-1.65,24.1a2.47,2.47,0,0,0,.65,1.83,2.5,2.5,0,0,0,1.82.77l39.23.24Z" style="fill:#407BFF"></path><path d="M167.48,157.8c0,1.75-1.46,2.64-3.66,2.64h-4.06l1.69-8.43h3.73c1.69,0,2.66.64,2.66,1.85a2.29,2.29,0,0,1-1.55,2.23A1.69,1.69,0,0,1,167.48,157.8Zm-1.19,0c0-.85-.63-1.15-1.76-1.15h-2.82l-.55,2.8h2.75C165.42,159.46,166.29,158.88,166.29,157.81ZM162.45,153l-.54,2.7h2.47c1.32,0,2.21-.54,2.21-1.62,0-.74-.61-1.08-1.66-1.08Z" style="fill:#263238"></path><path d="M168.71,157.75a3.63,3.63,0,0,1,3.74-3.75,2.69,2.69,0,0,1,3,2.74,3.62,3.62,0,0,1-3.73,3.77A2.72,2.72,0,0,1,168.71,157.75Zm5.56-.95a1.68,1.68,0,0,0-1.9-1.79,2.51,2.51,0,0,0-2.49,2.69,1.69,1.69,0,0,0,1.9,1.8A2.5,2.5,0,0,0,174.27,156.8Z" style="fill:#263238"></path><path d="M183.21,156.11a4.08,4.08,0,0,1-.08.75l-.71,3.58h-1.15l.71-3.58a3.58,3.58,0,0,0,.06-.53c0-.83-.48-1.3-1.48-1.3a2.25,2.25,0,0,0-2.36,2l-.68,3.37h-1.15l1.26-6.38h1.11l-.16.82a3.1,3.1,0,0,1,2.31-.88C182.34,154,183.21,154.75,183.21,156.11Z" style="fill:#263238"></path><path d="M182,162.46l.5-.89a1.49,1.49,0,0,0,.92.3c.64,0,1-.34,1.15-1.13l1.34-6.68H187l-1.34,6.68a2.23,2.23,0,0,1-2.32,2.1A2.42,2.42,0,0,1,182,162.46Zm4.1-10.33a.8.8,0,0,1,.83-.81.71.71,0,0,1,.74.68.8.8,0,0,1-.85.83A.69.69,0,0,1,186.07,152.13Z" style="fill:#263238"></path><path d="M188,157.75a3.63,3.63,0,0,1,3.74-3.75,2.69,2.69,0,0,1,3,2.74,3.63,3.63,0,0,1-3.74,3.77A2.71,2.71,0,0,1,188,157.75Zm5.56-.95a1.68,1.68,0,0,0-1.9-1.79,2.51,2.51,0,0,0-2.5,2.69,1.7,1.7,0,0,0,1.91,1.8A2.51,2.51,0,0,0,193.54,156.8Z" style="fill:#263238"></path><path d="M202.84,154.06l-1.26,6.38h-1.11l.16-.82a3.14,3.14,0,0,1-2.29.89,2,2,0,0,1-2.29-2.14,4.07,4.07,0,0,1,.08-.74l.71-3.57H198l-.71,3.58a3.84,3.84,0,0,0-.06.55c0,.81.48,1.28,1.46,1.28a2.25,2.25,0,0,0,2.33-2l.68-3.38Z" style="fill:#263238"></path><path d="M208.5,154l-.21,1.12a1.46,1.46,0,0,0-.3,0,2.3,2.3,0,0,0-2.41,2.15l-.64,3.19h-1.16l1.27-6.38h1.11L206,155A2.94,2.94,0,0,1,208.5,154Z" style="fill:#263238"></path><g id="freepik--freepik-speech-bubbles-inject-120--inject-3"><path d="M378.56,219.48l52.38-.31a2.76,2.76,0,0,1,2.86,2.65,2.26,2.26,0,0,1,0,.45l-2.57,24.09a3.61,3.61,0,0,1-3.5,3.14l-39.29.23a23.66,23.66,0,0,1-13.8,8.07s5-4.6,6.2-8l-5.49,0a2.75,2.75,0,0,1-2.86-2.65,2.26,2.26,0,0,1,0-.45l2.56-24.08A3.64,3.64,0,0,1,378.56,219.48Z" style="fill:#fff"></path><path d="M373.1,258.51l1.18-1.08s4.3-4,5.79-7.14l-4.74,0a3.24,3.24,0,0,1-3.36-3.13,3.13,3.13,0,0,1,0-.53l2.56-24.07a4.13,4.13,0,0,1,4-3.6h0l52.38-.31a3.26,3.26,0,0,1,2.33.87,3.2,3.2,0,0,1,1,2.26,3.25,3.25,0,0,1,0,.54l-2.57,24.07a4.11,4.11,0,0,1-4,3.59l-39.06.23a23.9,23.9,0,0,1-14,8.06Zm8.42-9.23-.23.67c-.84,2.42-3.47,5.35-5.07,7A23.22,23.22,0,0,0,388,249.42l.15-.18h.24L427.7,249a3.12,3.12,0,0,0,3-2.71l2.56-24.07a1.64,1.64,0,0,0,0-.38,2.25,2.25,0,0,0-2.34-2.17l-52.4.31a3.1,3.1,0,0,0-3,2.72L373,246.76a1.67,1.67,0,0,0,0,.38,2.24,2.24,0,0,0,2.34,2.17Z" style="fill:#407BFF"></path></g><path d="M389,231.2l-1.42,7.12h-1.25l.92-4.67-3,3.86h-.59L382,233.56l-.95,4.76H379.8l1.43-7.12h1.08l1.88,4.74,3.69-4.74Z" style="fill:#263238"></path><path d="M395,236h-4.31c0,.87.51,1.34,1.56,1.34a2.33,2.33,0,0,0,1.57-.56l.53.88a3.35,3.35,0,0,1-2.23.76,2.39,2.39,0,0,1-2.68-2.4,3,3,0,0,1,3.14-3.17,2.28,2.28,0,0,1,2.5,2.38A3.71,3.71,0,0,1,395,236Zm-4.2-.84h3.11a1.23,1.23,0,0,0-1.39-1.29A1.7,1.7,0,0,0,390.8,235.14Z" style="fill:#263238"></path><path d="M399.93,232.83,399.7,234a1.66,1.66,0,0,0-.32,0,1.78,1.78,0,0,0-1.88,1.64l-.54,2.67h-1.27l1.08-5.43H398l-.14.7A2.54,2.54,0,0,1,399.93,232.83Z" style="fill:#263238"></path><path d="M405.93,234.67a3.79,3.79,0,0,1-.07.64l-.6,3H404l.59-3a2.12,2.12,0,0,0,0-.42c0-.63-.34-1-1.09-1a1.72,1.72,0,0,0-1.78,1.56l-.57,2.82h-1.27l1.51-7.55h1.27l-.53,2.66a2.68,2.68,0,0,1,1.79-.6A1.76,1.76,0,0,1,405.93,234.67Z" style="fill:#263238"></path><path d="M413.32,232.89l-1.08,5.43H411l.11-.56a2.59,2.59,0,0,1-1.77.64A2.28,2.28,0,0,1,407,236a3,3,0,0,1,3.06-3.17,2,2,0,0,1,1.85.86l.16-.8Zm-1.75,2.38a1.28,1.28,0,0,0-1.44-1.36,1.88,1.88,0,0,0-1.87,2,1.29,1.29,0,0,0,1.44,1.37A1.89,1.89,0,0,0,411.57,235.27Z" style="fill:#263238"></path><path d="M420.24,235.21a3,3,0,0,1-3.05,3.19,2,2,0,0,1-1.9-.94l-.17.86H413.9l1.51-7.55h1.27l-.52,2.63a2.59,2.59,0,0,1,1.69-.57A2.26,2.26,0,0,1,420.24,235.21Zm-1.28.06a1.28,1.28,0,0,0-1.43-1.36,1.89,1.89,0,0,0-1.88,2,1.29,1.29,0,0,0,1.44,1.37A1.89,1.89,0,0,0,419,235.27Z" style="fill:#263238"></path><path d="M427.27,232.89l-1.08,5.43H425l.11-.56a2.56,2.56,0,0,1-1.77.64,2.28,2.28,0,0,1-2.39-2.4,3,3,0,0,1,3.07-3.17,2,2,0,0,1,1.85.86l.15-.8Zm-1.75,2.38a1.28,1.28,0,0,0-1.43-1.36,1.89,1.89,0,0,0-1.88,2,1.29,1.29,0,0,0,1.44,1.37A1.89,1.89,0,0,0,425.52,235.27Z" style="fill:#263238"></path><g id="freepik--freepik-speech-bubbles-inject-120--inject-3"><path d="M114.68,301.94l-52.38.32a2.77,2.77,0,0,1-2.87-2.65c0-.15,0-.3,0-.45L62,275.07a3.63,3.63,0,0,1,3.51-3.14l39.28-.24a23.72,23.72,0,0,1,13.81-8.06s-5,4.6-6.2,8l5.48,0a2.75,2.75,0,0,1,2.87,2.64,3.54,3.54,0,0,1,0,.46l-2.56,24.08A3.63,3.63,0,0,1,114.68,301.94Z" style="fill:#fff"></path><path d="M62.17,302.76A3.28,3.28,0,0,1,59,299.09L61.52,275a4.12,4.12,0,0,1,4-3.59l39.05-.24a24,24,0,0,1,14-8.06l1.59-.21L119,264s-4.31,4-5.79,7.14l4.73,0a3.14,3.14,0,0,1,2.32.86,3.16,3.16,0,0,1,1,2.8l-2.56,24.07a4.11,4.11,0,0,1-4,3.59h0l-52.38.32ZM117,264.5A23.3,23.3,0,0,0,105.2,272l-.15.18h-.23l-39.29.24a3.09,3.09,0,0,0-3,2.71L60,299.21c0,.13,0,.25,0,.38a2.25,2.25,0,0,0,.73,1.57,2.16,2.16,0,0,0,1.62.6l52.39-.32a3.11,3.11,0,0,0,3-2.71l2.56-24.07a2.42,2.42,0,0,0,0-.38,2.25,2.25,0,0,0-.73-1.57,2.15,2.15,0,0,0-1.62-.59l-6.2,0,.23-.67C112.79,269.05,115.42,266.12,117,264.5Z" style="fill:#407BFF"></path></g><path d="M71.72,288.29c0-3.81,2.81-6.59,6.9-6.59a5,5,0,0,1,4.46,2.07l-2.25,1.79a2.68,2.68,0,0,0-2.42-1.29,3.55,3.55,0,0,0-3.55,3.82,2.41,2.41,0,0,0,2.69,2.46,3.41,3.41,0,0,0,2.68-1.27l1.84,1.81a5.83,5.83,0,0,1-4.82,2C73.87,293.13,71.72,291.17,71.72,288.29Z" style="fill:#263238"></path><path d="M84.39,284.4h3l-1.7,8.51h-3Zm.19-2.42a1.73,1.73,0,0,1,1.91-1.69c1.06,0,1.73.61,1.73,1.42a1.76,1.76,0,0,1-1.93,1.75A1.54,1.54,0,0,1,84.58,282Z" style="fill:#263238"></path><path d="M98.28,284.4l-1.69,8.51H93.76l.17-.8a3.47,3.47,0,0,1-2.46.94,3.63,3.63,0,0,1-3.6-3.88,4.71,4.71,0,0,1,4.62-4.91,2.91,2.91,0,0,1,2.61,1.16l.2-1Zm-3.75,3.88a1.51,1.51,0,0,0-1.62-1.64,2.13,2.13,0,0,0-2,2.39,1.5,1.5,0,0,0,1.62,1.62A2.11,2.11,0,0,0,94.53,288.28Z" style="fill:#263238"></path><path d="M98.77,289.17a4.92,4.92,0,0,1,5.23-4.91c2.71,0,4.45,1.52,4.45,3.86a4.92,4.92,0,0,1-5.22,4.93C100.51,293.05,98.77,291.51,98.77,289.17Zm6.65-.89a1.5,1.5,0,0,0-1.6-1.64,2.12,2.12,0,0,0-2,2.39,1.48,1.48,0,0,0,1.6,1.62A2.11,2.11,0,0,0,105.42,288.28Z" style="fill:#263238"></path></g></svg>